<svg xmlns="http://www.w3.org/2000/svg" xmlns:xlink="http://www.w3.org/1999/xlink" viewBox="0 0 1080 1080" width="1080" height="1080" preserveAspectRatio="xMidYMid meet" style="width: 100%; height: 100%; transform: translate3d(0px, 0px, 0px); content-visibility: visible;"><defs><clipPath id="__lottie_element_2483"><rect width="1080" height="1080" x="0" y="0"/></clipPath></defs><g clip-path="url(#__lottie_element_2483)"><g transform="matrix(9.918000221252441,0,0,9.918000221252441,247.41897583007812,199.94151306152344)" opacity="1" style="display: block;"><g opacity="1" transform="matrix(1,0,0,1,0,0)"><g opacity="1" transform="matrix(1,0,0,1,40.2599983215332,5.739999771118164)"><path stroke-linecap="round" stroke-linejoin="round" fill-opacity="0" stroke="rgb(0,0,0)" stroke-opacity="1" stroke-width="1" d=" M-2.7049999237060547,-1.5379999876022339 C-2.7049999237060547,-1.5379999876022339 -1.9279999732971191,-2.315000057220459 -1.9279999732971191,-2.315000057220459 C-1.5369999408721924,-2.7049999237060547 -0.9039999842643738,-2.7049999237060547 -0.5139999985694885,-2.315000057220459 C-0.5139999985694885,-2.315000057220459 2.315999984741211,0.5130000114440918 2.315999984741211,0.5130000114440918 C2.7060000896453857,0.902999997138977 2.7060000896453857,1.5369999408721924 2.315999984741211,1.9279999732971191 C2.315999984741211,1.9279999732971191 1.5360000133514404,2.7060000896453857 1.5360000133514404,2.7060000896453857"/></g><g opacity="1" transform="matrix(1,0,0,1,28.079999923706055,17.92099952697754)"><path fill="rgb(64,95,255)" fill-opacity="1" d=" M11.949999809265137,-4.879000186920166 C12.927000045776367,-5.855999946594238 12.927000045776367,-7.438000202178955 11.949999809265137,-8.414999961853027 C11.949999809265137,-8.414999961853027 8.413999557495117,-11.949999809265137 8.413999557495117,-11.949999809265137 C7.436999797821045,-12.925999641418457 5.854000091552734,-12.925999641418457 4.877999782562256,-11.949999809265137 C4.877999782562256,-11.949999809265137 -11.951000213623047,4.879000186920166 -11.951000213623047,4.879000186920166 C-12.927000045776367,5.855000019073486 -12.927000045776367,7.438000202178955 -11.951000213623047,8.413999557495117 C-11.951000213623047,8.413999557495117 -8.413999557495117,11.949999809265137 -8.413999557495117,11.949999809265137 C-7.439000129699707,12.925999641418457 -5.85699987411499,12.925999641418457 -4.880000114440918,11.949999809265137 C-4.880000114440918,11.949999809265137 11.949999809265137,-4.879000186920166 11.949999809265137,-4.879000186920166z"/><path stroke-linecap="round" stroke-linejoin="round" fill-opacity="0" stroke="rgb(0,0,0)" stroke-opacity="1" stroke-width="1" d=" M11.949999809265137,-4.879000186920166 C12.927000045776367,-5.855999946594238 12.927000045776367,-7.438000202178955 11.949999809265137,-8.414999961853027 C11.949999809265137,-8.414999961853027 8.413999557495117,-11.949999809265137 8.413999557495117,-11.949999809265137 C7.436999797821045,-12.925999641418457 5.854000091552734,-12.925999641418457 4.877999782562256,-11.949999809265137 C4.877999782562256,-11.949999809265137 -11.951000213623047,4.879000186920166 -11.951000213623047,4.879000186920166 C-12.927000045776367,5.855000019073486 -12.927000045776367,7.438000202178955 -11.951000213623047,8.413999557495117 C-11.951000213623047,8.413999557495117 -8.413999557495117,11.949999809265137 -8.413999557495117,11.949999809265137 C-7.439000129699707,12.925999641418457 -5.85699987411499,12.925999641418457 -4.880000114440918,11.949999809265137 C-4.880000114440918,11.949999809265137 11.949999809265137,-4.879000186920166 11.949999809265137,-4.879000186920166z"/></g><g opacity="1" transform="matrix(1,0,0,1,20.725000381469727,25.274999618530273)"><path stroke-linecap="round" stroke-linejoin="round" fill-opacity="0" stroke="rgb(0,0,0)" stroke-opacity="1" stroke-width="1" d=" M3.5360000133514404,3.5350000858306885 C3.5360000133514404,3.5350000858306885 -3.5360000133514404,-3.5350000858306885 -3.5360000133514404,-3.5350000858306885"/></g></g></g><g transform="matrix(11.020000457763672,0,0,11.020000457763672,214.90997314453125,181.8499755859375)" opacity="1" style="display: block;"><g opacity="1" transform="matrix(1,0,0,1,0,0)"><g opacity="1" transform="matrix(1,0,0,1,44.01599884033203,35.06399917602539)"><path stroke-linecap="round" stroke-linejoin="round" fill-opacity="0" stroke="rgb(0,0,0)" stroke-opacity="1" stroke-width="1" d=" M-6.650000095367432,18.898000717163086 C0.9279999732971191,15.79800033569336 6.298999786376953,8.357000350952148 6.479000091552734,-0.11100000143051147 C6.650000095367432,-8.166000366210938 2.259000062942505,-15.232000350952148 -4.2829999923706055,-18.898000717163086"/></g><g opacity="1" transform="matrix(1,0,0,1,13.704999923706055,45.733001708984375)"><path stroke-linecap="round" stroke-linejoin="round" fill-opacity="0" stroke="rgb(0,0,0)" stroke-opacity="1" stroke-width="1" d=" M9.204999923706055,2.236999988555908 C7.085000038146973,1.1979999542236328 5.22599983215332,-0.3319999873638153 3.796999931335449,-2.2330000400543213 C3.796999931335449,-2.2330000400543213 7.795000076293945,-2.2330000400543213 7.795000076293945,-2.2330000400543213 C8.347999572753906,-2.2330000400543213 8.795000076293945,-2.680000066757202 8.795000076293945,-3.2330000400543213 C8.795000076293945,-3.2330000400543213 8.795000076293945,-7.232999801635742 8.795000076293945,-7.232999801635742 C8.795000076293945,-7.784999847412109 8.347999572753906,-8.232999801635742 7.795000076293945,-8.232999801635742 C7.795000076293945,-8.232999801635742 -8.204999923706055,-8.232999801635742 -8.204999923706055,-8.232999801635742 C-8.758000373840332,-8.232999801635742 -9.204999923706055,-7.784999847412109 -9.204999923706055,-7.232999801635742 C-9.204999923706055,-7.232999801635742 -9.204999923706055,-3.2330000400543213 -9.204999923706055,-3.2330000400543213 C-9.204999923706055,-2.680000066757202 -8.758000373840332,-2.2330000400543213 -8.204999923706055,-2.2330000400543213 C-8.204999923706055,-2.2330000400543213 -3.1689999103546143,-2.2330000400543213 -3.1689999103546143,-2.2330000400543213 C-0.8859999775886536,2.5739998817443848 3.117000102996826,6.2789998054504395 7.932000160217285,8.232999801635742"/></g><g opacity="1" transform="matrix(1,0,0,1,40.702999114990234,34.507999420166016)"><path stroke-linecap="round" stroke-linejoin="round" fill-opacity="0" stroke="rgb(0,0,0)" stroke-opacity="1" stroke-width="1" d=" M-4.609000205993652,-13.479999542236328 C0.9700000286102295,-10.73799991607666 4.609000205993652,-4.63100004196167 3.6419999599456787,2.177000045776367 C2.944999933242798,7.089000225067139 -0.2160000056028366,11.340999603271484 -4.5970001220703125,13.479999542236328"/></g><g opacity="1" transform="matrix(1,0,0,1,29.5,60.5)"><path stroke-linecap="round" stroke-linejoin="round" fill-opacity="0" stroke="rgb(0,0,0)" stroke-opacity="1" stroke-width="1" d=" M25,2 C25,2 -25,2 -25,2 C-26.104000091552734,2 -27,1.1039999723434448 -27,0 C-27,-1.1039999723434448 -26.104000091552734,-2 -25,-2 C-25,-2 25,-2 25,-2 C26.104000091552734,-2 27,-1.1039999723434448 27,0 C27,1.1039999723434448 26.104000091552734,2 25,2z"/></g><g opacity="1" transform="matrix(1,0,0,1,0,0)"><g opacity="1" transform="matrix(1,0,0,1,29.5,16.5)"><path fill="rgb(255,255,255)" fill-opacity="1" d=" M6,0 C6,3.313999891281128 3.312999963760376,6 0,6 C-3.312999963760376,6 -6,3.313999891281128 -6,0 C-6,-3.312999963760376 -3.312999963760376,-6 0,-6 C3.312999963760376,-6 6,-3.312999963760376 6,0z"/><path stroke-linecap="round" stroke-linejoin="round" fill-opacity="0" stroke="rgb(0,0,0)" stroke-opacity="1" stroke-width="1" d=" M6,0 C6,3.313999891281128 3.312999963760376,6 0,6 C-3.312999963760376,6 -6,3.313999891281128 -6,0 C-6,-3.312999963760376 -3.312999963760376,-6 0,-6 C3.312999963760376,-6 6,-3.312999963760376 6,0z"/></g><g opacity="1" transform="matrix(1,0,0,1,29.5,16.5)"><path stroke-linecap="round" stroke-linejoin="round" fill-opacity="0" stroke="rgb(0,0,0)" stroke-opacity="1" stroke-width="1" d=" M3,0 C3,1.656999945640564 1.656999945640564,3 0,3 C-1.656000018119812,3 -3,1.656999945640564 -3,0 C-3,-1.656999945640564 -1.656000018119812,-3 0,-3 C1.656999945640564,-3 3,-1.656999945640564 3,0z"/></g></g><g opacity="1" transform="matrix(1,0,0,1,29.5,52.5)"><path stroke-linecap="round" stroke-linejoin="round" fill-opacity="0" stroke="rgb(0,0,0)" stroke-opacity="1" stroke-width="1" d=" M6,0 C6,3.313999891281128 3.312999963760376,6 0,6 C-3.312999963760376,6 -6,3.313999891281128 -6,0 C-6,-3.312999963760376 -3.312999963760376,-6 0,-6 C3.312999963760376,-6 6,-3.312999963760376 6,0z"/></g><g opacity="1" transform="matrix(1,0,0,1,29.5,52.5)"><path stroke-linecap="round" stroke-linejoin="round" fill-opacity="0" stroke="rgb(0,0,0)" stroke-opacity="1" stroke-width="1" d=" M3,0 C3,1.656999945640564 1.656999945640564,3 0,3 C-1.656000018119812,3 -3,1.656999945640564 -3,0 C-3,-1.656999945640564 -1.656000018119812,-3 0,-3 C1.656999945640564,-3 3,-1.656999945640564 3,0z"/></g></g><g opacity="1" transform="matrix(1,0,0,1,13.5,35)"><path fill="rgb(64,95,255)" fill-opacity="1" d=" M4,2.5 C4,2.5 -4,2.5 -4,2.5 C-4.552999973297119,2.5 -5,2.052000045776367 -5,1.5 C-5,1.5 -5,-1.5 -5,-1.5 C-5,-2.052000045776367 -4.552999973297119,-2.5 -4,-2.5 C-4,-2.5 4,-2.5 4,-2.5 C4.552999973297119,-2.5 5,-2.052000045776367 5,-1.5 C5,-1.5 5,1.5 5,1.5 C5,2.052000045776367 4.552999973297119,2.5 4,2.5z"/><path stroke-linecap="round" stroke-linejoin="round" fill-opacity="0" stroke="rgb(0,0,0)" stroke-opacity="1" stroke-width="1" d=" M4,2.5 C4,2.5 -4,2.5 -4,2.5 C-4.552999973297119,2.5 -5,2.052000045776367 -5,1.5 C-5,1.5 -5,-1.5 -5,-1.5 C-5,-2.052000045776367 -4.552999973297119,-2.5 -4,-2.5 C-4,-2.5 4,-2.5 4,-2.5 C4.552999973297119,-2.5 5,-2.052000045776367 5,-1.5 C5,-1.5 5,1.5 5,1.5 C5,2.052000045776367 4.552999973297119,2.5 4,2.5z"/></g></g><g transform="matrix(11.020000457763672,0,0,11.020000457763672,214.90997314453125,181.8499755859375)" opacity="1" style="display: block;"><g opacity="1" transform="matrix(1,0,0,1,0,0)"><g opacity="1" transform="matrix(1,0,0,1,55.9630012512207,34.06399917602539)"><path stroke-linecap="round" stroke-linejoin="round" fill-opacity="0" stroke-dasharray=" 10 5" stroke-dashoffset="-15.510000228881836" stroke="rgb(0,0,0)" stroke-opacity="1" stroke-width="1" d=" M-0.03700000047683716,-1 C0.012000000104308128,-0.3400000035762787 0.03700000047683716,0.3269999921321869 0.03700000047683716,1"/></g><g opacity="1" transform="matrix(1,0,0,1,51.96900177001953,23.69499969482422)"><path stroke-linecap="round" stroke-linejoin="round" fill-opacity="0" stroke-dasharray=" 10 5" stroke-dashoffset="-15.510000228881836" stroke="rgb(0,0,0)" stroke-opacity="1" stroke-width="1" d=" M-3.7309999465942383,-7.369999885559082 C0.17299999296665192,-3.4649999141693115 2.865999937057495,1.652999997138977 3.7309999465942383,7.369999885559082"/></g></g></g><g transform="matrix(11.020000457763672,0,0,11.020000457763672,214.90997314453125,181.8499755859375)" opacity="1" style="display: block;"><g opacity="1" transform="matrix(1,0,0,1,0,0)"><g opacity="1" transform="matrix(1,0,0,1,9.313006401062012,20.77958869934082)"><path stroke-linecap="round" stroke-linejoin="round" fill-opacity="0" stroke="rgb(0,0,0)" stroke-opacity="1" stroke-width="1" d=" M2,0 C2,1.1039999723434448 1.1039999723434448,2 0,2 C-1.1039999723434448,2 -2,1.1039999723434448 -2,0 C-2,-1.1039999723434448 -1.1039999723434448,-2 0,-2 C1.1039999723434448,-2 2,-1.1039999723434448 2,0z"/></g><g opacity="1" transform="matrix(1,0,0,1,15.395544052124023,12.257633209228516)"><path stroke-linecap="round" stroke-linejoin="round" fill-opacity="0" stroke="rgb(0,0,0)" stroke-opacity="1" stroke-width="1" d=" M2,0 C2,1.1039999723434448 1.1039999723434448,2 0,2 C-1.1039999723434448,2 -2,1.1039999723434448 -2,0 C-2,-1.1039999723434448 -1.1039999723434448,-2 0,-2 C1.1039999723434448,-2 2,-1.1039999723434448 2,0z"/></g><g opacity="0.10796235193968022" transform="matrix(1,0,0,1,13.563566207885742,24.330963134765625)"><path stroke-linecap="round" stroke-linejoin="round" fill-opacity="0" stroke="rgb(0,0,0)" stroke-opacity="1" stroke-width="1" d=" M2,0 C2,1.1039999723434448 1.1039999723434448,2 0,2 C-1.1039999723434448,2 -2,1.1039999723434448 -2,0 C-2,-1.1039999723434448 -1.1039999723434448,-2 0,-2 C1.1039999723434448,-2 2,-1.1039999723434448 2,0z"/></g><g opacity="0" transform="matrix(1,0,0,1,13.5,24.75)"><path stroke-linecap="round" stroke-linejoin="round" fill-opacity="0" stroke="rgb(0,0,0)" stroke-opacity="1" stroke-width="1" d=" M2,0 C2,1.1039999723434448 1.1039999723434448,2 0,2 C-1.1039999723434448,2 -2,1.1039999723434448 -2,0 C-2,-1.1039999723434448 -1.1039999723434448,-2 0,-2 C1.1039999723434448,-2 2,-1.1039999723434448 2,0z"/></g></g></g></g></svg>